<svg width="48" height="48" viewBox="0 0 48 48" fill="none" xmlns="http://www.w3.org/2000/svg">
<g clip-path="url(#clip0_1283_8219)">
<rect width="48" height="48" fill="white" fill-opacity="0.01"/>
<path d="M14.9393 11.9991C14.7145 11.9995 14.4927 12.0503 14.2901 12.1479C14.0876 12.2456 13.9096 12.3875 13.7693 12.5631L4.61935 23.9991H17.9993C18.3972 23.9991 18.7787 24.1572 19.06 24.4385C19.3413 24.7198 19.4993 25.1013 19.4993 25.4991C19.4993 26.6926 19.9735 27.8372 20.8174 28.6811C21.6613 29.525 22.8059 29.9991 23.9993 29.9991C25.1928 29.9991 26.3374 29.525 27.1813 28.6811C28.0252 27.8372 28.4993 26.6926 28.4993 25.4991C28.4993 25.1013 28.6574 24.7198 28.9387 24.4385C29.22 24.1572 29.6015 23.9991 29.9993 23.9991H43.3793L34.2293 12.5631C34.0891 12.3875 33.9111 12.2456 33.7086 12.1479C33.506 12.0503 33.2842 11.9995 33.0593 11.9991H14.9393ZM44.8013 26.9991H31.3493C31.0051 28.6946 30.0853 30.2189 28.7457 31.3137C27.4062 32.4086 25.7294 33.0067 23.9993 33.0067C22.2693 33.0067 20.5925 32.4086 19.253 31.3137C17.9134 30.2189 16.9936 28.6946 16.6493 26.9991H3.19735L4.15735 34.6851C4.20274 35.0484 4.37938 35.3825 4.65401 35.6245C4.92864 35.8665 5.28229 35.9998 5.64835 35.9991H42.3503C42.7159 35.999 43.0688 35.8655 43.3428 35.6235C43.6168 35.3815 43.793 35.0479 43.8383 34.6851L44.7983 26.9991H44.8013ZM11.4263 10.6881C11.8481 10.1609 12.3832 9.73526 12.9918 9.44289C13.6005 9.15051 14.2671 8.99885 14.9423 8.99915H33.0563C33.7316 8.99885 34.3982 9.15051 35.0069 9.44289C35.6155 9.73526 36.1506 10.1609 36.5723 10.6881L47.6723 24.5631C47.7971 24.7197 47.8892 24.8996 47.9433 25.0923C47.9974 25.285 48.0124 25.4866 47.9874 25.6851L46.8173 35.0571C46.6813 36.1458 46.1522 37.1473 45.3296 37.8732C44.507 38.5992 43.4475 38.9996 42.3503 38.9991H5.64835C4.55121 38.9996 3.49172 38.5992 2.66909 37.8732C1.84647 37.1473 1.31739 36.1458 1.18135 35.0571L0.0113463 25.6851C-0.0132425 25.4864 0.00222753 25.2847 0.0568437 25.092C0.11146 24.8993 0.204116 24.7195 0.329346 24.5631L11.4293 10.6881H11.4263Z" fill="#DC8116"/>
</g>
<defs>
<clipPath id="clip0_1283_8219">
<rect width="48" height="48" fill="white"/>
</clipPath>
</defs>
</svg>
