<svg width="16" height="16" viewBox="0 0 16 16" fill="none" xmlns="http://www.w3.org/2000/svg">
<path d="M7.99967 2.3361C8.5426 1.72097 9.33694 1.33301 10.2219 1.33301C11.8583 1.33301 13.1849 2.65957 13.1849 4.29597C13.1849 5.93237 11.8583 7.25893 10.2219 7.25893C9.33694 7.25893 8.5426 6.87097 7.99967 6.25584M10.2219 14.6663H1.33301V13.9256C1.33301 11.471 3.32285 9.48116 5.77745 9.48116C8.23205 9.48116 10.2219 11.471 10.2219 13.9256V14.6663ZM10.2219 14.6663H14.6663V13.9256C14.6663 11.471 12.6765 9.48116 10.2219 9.48116C9.41237 9.48116 8.65339 9.69759 7.99967 10.0757M8.74041 4.29597C8.74041 5.93237 7.41385 7.25893 5.77745 7.25893C4.14105 7.25893 2.81449 5.93237 2.81449 4.29597C2.81449 2.65957 4.14105 1.33301 5.77745 1.33301C7.41385 1.33301 8.74041 2.65957 8.74041 4.29597Z" stroke="#6C757D" stroke-width="2" stroke-linecap="round" stroke-linejoin="round"/>
</svg>
